STARTFONT 2.1
COMMENT Copyright (C) 1990-1991 EWT Consulting
COMMENT Portions Copyright (C) 1994-1995 Cronyx Ltd.
COMMENT Modified by Serge Vakulenko, <vak@cronyx.ru>
COMMENT Encoding changed to CP1251 by Rabinovich Moisei, <moisei@cs.bgu.ac.il>,$
COMMENT This software may be used, modified, copied, distributed, and sold,
COMMENT in both source and binary form provided that the copyright
COMMENT and these terms are retained. Under no circumstances is the author
COMMENT responsible for the proper functioning of this software, nor does
COMMENT the author assume any responsibility for damages incurred with its use.
FONT -Cronyx-Courier-Medium-R-Normal--12-120-75-75-M-70-RAWIN-R
SIZE 12 96 96
FONTBOUNDINGBOX 12 20 0 -4
STARTPROPERTIES 19
DEFAULT_CHAR 32
FONT_ASCENT 16
FONT_DESCENT 4
SPACING "M"
FONTNAME_REGISTRY ""
FOUNDRY "Cronyx"
FAMILY_NAME "Courier"
WEIGHT_NAME "Medium"
SLANT "R"
SETWIDTH_NAME "Normal"
ADD_STYLE_NAME ""
AVERAGE_WIDTH 70
CHARSET_REGISTRY "RAWIN"
CHARSET_ENCODING "R"
PIXEL_SIZE 12
POINT_SIZE 120
RESOLUTION_X 75
RESOLUTION_Y 75
COPYRIGHT "Copyright (C) 1990, 1991 EWT Consulting, Portions Copyright (C) 1994 Cronyx Ltd."
ENDPROPERTIES
CHARS 224
STARTCHAR space
ENCODING 32
SWIDTH 600 0
DWIDTH 12 0
BBX 12 20 0 -4
BITMAP
0000
0000
0000
0000
0000
0000
0000
0000
0000
0000
0000
0000
0000
0000
0000
0000
0000
0000
0000
0000
ENDCHAR
STARTCHAR exclam
ENCODING 33
SWIDTH 600 0
DWIDTH 12 0
BBX 12 20 0 -4
BITMAP
0000
0000
0000
0000
0200
0200
0200
0200
0200
0200
0200
0200
0000
0000
0200
0200
0000
0000
0000
0000
ENDCHAR
STARTCHAR quotedbl
ENCODING 34
SWIDTH 600 0
DWIDTH 12 0
BBX 12 20 0 -4
BITMAP
0000
0000
0000
0000
0880
0880
0880
0880
0880
0000
0000
0000
0000
0000
0000
0000
0000
0000
0000
0000
ENDCHAR
STARTCHAR numbersign
ENCODING 35
SWIDTH 600 0
DWIDTH 12 0
BBX 12 20 0 -4
BITMAP
0000
0000
0000
0000
0440
0440
0440
1fe0
0880
0880
0880
0880
3fc0
1100
1100
1100
0000
0000
0000
0000
ENDCHAR
STARTCHAR dollar
ENCODING 36
SWIDTH 600 0
DWIDTH 12 0
BBX 12 20 0 -4
BITMAP
0000
0000
0000
0200
0200
0f40
10c0
1040
1000
0800
0700
0080
0040
1040
1840
1780
0200
0200
0000
0000
ENDCHAR
STARTCHAR percent
ENCODING 37
SWIDTH 600 0
DWIDTH 12 0
BBX 12 20 0 -4
BITMAP
0000
0000
0000
0000
3800
4420
4440
4480
3900
0200
0200
04e0
0910
1110
2110
00e0
0000
0000
0000
0000
ENDCHAR
STARTCHAR ampersand
ENCODING 38
SWIDTH 600 0
DWIDTH 12 0
BBX 12 20 0 -4
BITMAP
0000
0000
0000
0000
0f00
1080
1000
1000
0800
1400
1200
2120
20a0
2040
20a0
1f10
0000
0000
0000
0000
ENDCHAR
STARTCHAR quoteright
ENCODING 39
SWIDTH 600 0
DWIDTH 12 0
BBX 12 20 0 -4
BITMAP
0000
0000
0000
0000
0200
0200
0200
0200
0200
0000
0000
0000
0000
0000
0000
0000
0000
0000
0000
0000
ENDCHAR
STARTCHAR parenleft
ENCODING 40
SWIDTH 600 0
DWIDTH 12 0
BBX 12 20 0 -4
BITMAP
0000
0000
0000
0000
0100
0200
0200
0400
0400
0400
0400
0400
0400
0400
0400
0400
0200
0200
0100
0000
ENDCHAR
STARTCHAR parenright
ENCODING 41
SWIDTH 600 0
DWIDTH 12 0
BBX 12 20 0 -4
BITMAP
0000
0000
0000
0000
0400
0200
0200
0100
0100
0100
0100
0100
0100
0100
0100
0100
0200
0200
0400
0000
ENDCHAR
STARTCHAR asterisk
ENCODING 42
SWIDTH 600 0
DWIDTH 12 0
BBX 12 20 0 -4
BITMAP
0000
0000
0000
0000
0200
1240
0f80
0700
0500
0880
0000
0000
0000
0000
0000
0000
0000
0000
0000
0000
ENDCHAR
STARTCHAR plus
ENCODING 43
SWIDTH 600 0
DWIDTH 12 0
BBX 12 20 0 -4
BITMAP
0000
0000
0000
0000
0000
0000
0200
0200
0200
0200
3fe0
0200
0200
0200
0200
0000
0000
0000
0000
0000
ENDCHAR
STARTCHAR comma
ENCODING 44
SWIDTH 600 0
DWIDTH 12 0
BBX 12 20 0 -4
BITMAP
0000
0000
0000
0000
0000
0000
0000
0000
0000
0000
0000
0000
0000
0000
0200
0200
0400
0000
0000
0000
ENDCHAR
STARTCHAR minus
ENCODING 45
SWIDTH 600 0
DWIDTH 12 0
BBX 12 20 0 -4
BITMAP
0000
0000
0000
0000
0000
0000
0000
0000
0000
0000
0000
3fe0
0000
0000
0000
0000
0000
0000
0000
0000
ENDCHAR
STARTCHAR period
ENCODING 46
SWIDTH 600 0
DWIDTH 12 0
BBX 12 20 0 -4
BITMAP
0000
0000
0000
0000
0000
0000
0000
0000
0000
0000
0000
0000
0000
0000
0200
0200
0000
0000
0000
0000
ENDCHAR
STARTCHAR slash
ENCODING 47
SWIDTH 600 0
DWIDTH 12 0
BBX 12 20 0 -4
BITMAP
0000
0000
0000
0000
0000
0010
0020
0040
0080
0100
0200
0400
0800
1000
2000
4000
0000
0000
0000
0000
ENDCHAR
STARTCHAR zero
ENCODING 48
SWIDTH 600 0
DWIDTH 12 0
BBX 12 20 0 -4
BITMAP
0000
0000
0000
0000
0700
0880
1040
1040
1040
1040
1040
1040
1040
1040
0880
0700
0000
0000
0000
0000
ENDCHAR
STARTCHAR one
ENCODING 49
SWIDTH 600 0
DWIDTH 12 0
BBX 12 20 0 -4
BITMAP
0000
0000
0000
0000
0600
1a00
0200
0200
0200
0200
0200
0200
0200
0200
0200
1fc0
0000
0000
0000
0000
ENDCHAR
STARTCHAR two
ENCODING 50
SWIDTH 600 0
DWIDTH 12 0
BBX 12 20 0 -4
BITMAP
0000
0000
0000
0000
0700
0880
1040
0040
0040
0080
0100
0200
0400
0840
1040
1fc0
0000
0000
0000
0000
ENDCHAR
STARTCHAR three
ENCODING 51
SWIDTH 600 0
DWIDTH 12 0
BBX 12 20 0 -4
BITMAP
0000
0000
0000
0000
0f00
1080
0040
0040
0080
0300
0080
0040
0040
0040
1080
0f00
0000
0000
0000
0000
ENDCHAR
STARTCHAR four
ENCODING 52
SWIDTH 600 0
DWIDTH 12 0
BBX 12 20 0 -4
BITMAP
0000
0000
0000
0000
0080
0180
0180
0280
0480
0480
0880
1080
1fc0
0080
0080
03c0
0000
0000
0000
0000
ENDCHAR
STARTCHAR five
ENCODING 53
SWIDTH 600 0
DWIDTH 12 0
BBX 12 20 0 -4
BITMAP
0000
0000
0000
0000
1f80
1000
1000
1000
1f00
1080
0040
0040
0040
0040
1080
0f00
0000
0000
0000
0000
ENDCHAR
STARTCHAR six
ENCODING 54
SWIDTH 600 0
DWIDTH 12 0
BBX 12 20 0 -4
BITMAP
0000
0000
0000
0000
01c0
0600
0800
0800
1000
1700
1880
1040
1040
1040
0880
0700
0000
0000
0000
0000
ENDCHAR
STARTCHAR seven
ENCODING 55
SWIDTH 600 0
DWIDTH 12 0
BBX 12 20 0 -4
BITMAP
0000
0000
0000
0000
1fc0
1040
1040
0080
0080
0100
0100
0200
0200
0400
0400
0400
0000
0000
0000
0000
ENDCHAR
STARTCHAR eight
ENCODING 56
SWIDTH 600 0
DWIDTH 12 0
BBX 12 20 0 -4
BITMAP
0000
0000
0000
0000
0700
0880
1040
1040
0880
0700
0880
1040
1040
1040
0880
0700
0000
0000
0000
0000
ENDCHAR
STARTCHAR nine
ENCODING 57
SWIDTH 600 0
DWIDTH 12 0
BBX 12 20 0 -4
BITMAP
0000
0000
0000
0000
0700
0880
1040
1040
1040
08c0
0740
0040
0080
0080
0300
1c00
0000
0000
0000
0000
ENDCHAR
STARTCHAR colon
ENCODING 58
SWIDTH 600 0
DWIDTH 12 0
BBX 12 20 0 -4
BITMAP
0000
0000
0000
0000
0000
0000
0000
0200
0200
0000
0000
0000
0000
0000
0200
0200
0000
0000
0000
0000
ENDCHAR
STARTCHAR semicolon
ENCODING 59
SWIDTH 600 0
DWIDTH 12 0
BBX 12 20 0 -4
BITMAP
0000
0000
0000
0000
0000
0000
0000
0200
0200
0000
0000
0000
0000
0000
0200
0200
0400
0000
0000
0000
ENDCHAR
STARTCHAR less
ENCODING 60
SWIDTH 600 0
DWIDTH 12 0
BBX 12 20 0 -4
BITMAP
0000
0000
0000
0000
0000
0000
0080
0100
0200
0400
0800
0400
0200
0100
0080
0000
0000
0000
0000
0000
ENDCHAR
STARTCHAR equal
ENCODING 61
SWIDTH 600 0
DWIDTH 12 0
BBX 12 20 0 -4
BITMAP
0000
0000
0000
0000
0000
0000
0000
0000
3fe0
0000
0000
0000
3fe0
0000
0000
0000
0000
0000
0000
0000
ENDCHAR
STARTCHAR greater
ENCODING 62
SWIDTH 600 0
DWIDTH 12 0
BBX 12 20 0 -4
BITMAP
0000
0000
0000
0000
0000
0000
0800
0400
0200
0100
0080
0100
0200
0400
0800
0000
0000
0000
0000
0000
ENDCHAR
STARTCHAR question
ENCODING 63
SWIDTH 600 0
DWIDTH 12 0
BBX 12 20 0 -4
BITMAP
0000
0000
0000
0000
0f80
1040
1040
0040
0080
0100
0200
0200
0000
0000
0200
0200
0000
0000
0000
0000
ENDCHAR
STARTCHAR at
ENCODING 64
SWIDTH 600 0
DWIDTH 12 0
BBX 12 20 0 -4
BITMAP
0000
0000
0000
0000
0f80
1040
2020
2020
23e0
2420
2420
2420
2420
2420
23e0
2000
1000
0f80
0000
0000
ENDCHAR
STARTCHAR A
ENCODING 65
SWIDTH 600 0
DWIDTH 12 0
BBX 12 20 0 -4
BITMAP
0000
0000
0000
0000
0e00
0200
0200
0500
0500
0880
0880
1040
1fc0
2020
2020
7070
0000
0000
0000
0000
ENDCHAR
STARTCHAR B
ENCODING 66
SWIDTH 600 0
DWIDTH 12 0
BBX 12 20 0 -4
BITMAP
0000
0000
0000
0000
7f80
1040
1020
1020
1040
1fc0
1020
1010
1010
1010
1020
7fc0
0000
0000
0000
0000
ENDCHAR
STARTCHAR C
ENCODING 67
SWIDTH 600 0
DWIDTH 12 0
BBX 12 20 0 -4
BITMAP
0000
0000
0000
0000
07d0
1830
1010
2000
2000
2000
2000
2000
2000
1010
1830
07c0
0000
0000
0000
0000
ENDCHAR
STARTCHAR D
ENCODING 68
SWIDTH 600 0
DWIDTH 12 0
BBX 12 20 0 -4
BITMAP
0000
0000
0000
0000
7f80
1060
1020
1010
1010
1010
1010
1010
1010
1020
1060
7f80
0000
0000
0000
0000
ENDCHAR
STARTCHAR E
ENCODING 69
SWIDTH 600 0
DWIDTH 12 0
BBX 12 20 0 -4
BITMAP
0000
0000
0000
0000
7fe0
1020
1020
1000
1080
1f80
1080
1000
1000
1020
1020
7fe0
0000
0000
0000
0000
ENDCHAR
STARTCHAR F
ENCODING 70
SWIDTH 600 0
DWIDTH 12 0
BBX 12 20 0 -4
BITMAP
0000
0000
0000
0000
3ff0
0810
0810
0800
0840
0fc0
0840
0800
0800
0800
0800
3f00
0000
0000
0000
0000
ENDCHAR
STARTCHAR G
ENCODING 71
SWIDTH 600 0
DWIDTH 12 0
BBX 12 20 0 -4
BITMAP
0000
0000
0000
0000
0fa0
3060
2020
4000
4000
4000
41f0
4020
4020
2020
3060
0f80
0000
0000
0000
0000
ENDCHAR
STARTCHAR H
ENCODING 72
SWIDTH 600 0
DWIDTH 12 0
BBX 12 20 0 -4
BITMAP
0000
0000
0000
0000
7070
2020
2020
2020
2020
3fe0
2020
2020
2020
2020
2020
7070
0000
0000
0000
0000
ENDCHAR
STARTCHAR I
ENCODING 73
SWIDTH 600 0
DWIDTH 12 0
BBX 12 20 0 -4
BITMAP
0000
0000
0000
0000
1fc0
0200
0200
0200
0200
0200
0200
0200
0200
0200
0200
1fc0
0000
0000
0000
0000
ENDCHAR
STARTCHAR J
ENCODING 74
SWIDTH 600 0
DWIDTH 12 0
BBX 12 20 0 -4
BITMAP
0000
0000
0000
0000
07e0
0080
0080
0080
0080
0080
0080
0080
0080
2080
2080
1f00
0000
0000
0000
0000
ENDCHAR
STARTCHAR K
ENCODING 75
SWIDTH 600 0
DWIDTH 12 0
BBX 12 20 0 -4
BITMAP
0000
0000
0000
0000
71e0
2080
2100
2200
2400
2800
3400
2200
2100
2080
2040
7030
0000
0000
0000
0000
ENDCHAR
STARTCHAR L
ENCODING 76
SWIDTH 600 0
DWIDTH 12 0
BBX 12 20 0 -4
BITMAP
0000
0000
0000
0000
7e00
1000
1000
1000
1000
1000
1000
1000
1000
1020
1020
7fe0
0000
0000
0000
0000
ENDCHAR
STARTCHAR M
ENCODING 77
SWIDTH 600 0
DWIDTH 12 0
BBX 12 20 0 -4
BITMAP
0000
0000
0000
0000
6030
3060
3060
28a0
28a0
2520
2520
2220
2220
2020
2020
7070
0000
0000
0000
0000
ENDCHAR
STARTCHAR N
ENCODING 78
SWIDTH 600 0
DWIDTH 12 0
BBX 12 20 0 -4
BITMAP
0000
0000
0000
0000
60f0
3020
3020
2820
2420
2220
2220
2120
20a0
2060
2060
7820
0000
0000
0000
0000
ENDCHAR
STARTCHAR O
ENCODING 79
SWIDTH 600 0
DWIDTH 12 0
BBX 12 20 0 -4
BITMAP
0000
0000
0000
0000
0f80
3060
2020
4010
4010
4010
4010
4010
4010
2020
3060
0f80
0000
0000
0000
0000
ENDCHAR
STARTCHAR P
ENCODING 80
SWIDTH 600 0
DWIDTH 12 0
BBX 12 20 0 -4
BITMAP
0000
0000
0000
0000
7f00
1040
1020
1020
1020
1040
1f80
1000
1000
1000
1000
7e00
0000
0000
0000
0000
ENDCHAR
STARTCHAR Q
ENCODING 81
SWIDTH 600 0
DWIDTH 12 0
BBX 12 20 0 -4
BITMAP
0000
0000
0000
0000
0f80
3060
2020
4010
4010
4010
4010
4010
4010
2020
3060
0f80
0800
1c40
2380
0000
ENDCHAR
STARTCHAR R
ENCODING 82
SWIDTH 600 0
DWIDTH 12 0
BBX 12 20 0 -4
BITMAP
0000
0000
0000
0000
7f80
1040
1020
1020
1020
1040
1f80
1100
1080
1040
1020
7c10
0000
0000
0000
0000
ENDCHAR
STARTCHAR S
ENCODING 83
SWIDTH 600 0
DWIDTH 12 0
BBX 12 20 0 -4
BITMAP
0000
0000
0000
0000
0fa0
1060
2020
2000
1000
0e00
0180
0040
0020
2020
3040
2f80
0000
0000
0000
0000
ENDCHAR
STARTCHAR T
ENCODING 84
SWIDTH 600 0
DWIDTH 12 0
BBX 12 20 0 -4
BITMAP
0000
0000
0000
0000
7ff0
4210
4210
0200
0200
0200
0200
0200
0200
0200
0200
0f80
0000
0000
0000
0000
ENDCHAR
STARTCHAR U
ENCODING 85
SWIDTH 600 0
DWIDTH 12 0
BBX 12 20 0 -4
BITMAP
0000
0000
0000
0000
7070
2020
2020
2020
2020
2020
2020
2020
2020
2020
1040
0f80
0000
0000
0000
0000
ENDCHAR
STARTCHAR V
ENCODING 86
SWIDTH 600 0
DWIDTH 12 0
BBX 12 20 0 -4
BITMAP
0000
0000
0000
0000
7070
2020
2020
1040
1040
0880
0880
0880
0500
0500
0200
0200
0000
0000
0000
0000
ENDCHAR
STARTCHAR W
ENCODING 87
SWIDTH 600 0
DWIDTH 12 0
BBX 12 20 0 -4
BITMAP
0000
0000
0000
0000
6030
4010
4010
4210
4210
2520
2520
28a0
28a0
1040
1040
1040
0000
0000
0000
0000
ENDCHAR
STARTCHAR X
ENCODING 88
SWIDTH 600 0
DWIDTH 12 0
BBX 12 20 0 -4
BITMAP
0000
0000
0000
0000
78f0
2020
1040
0880
0500
0200
0200
0500
0880
1040
2020
78f0
0000
0000
0000
0000
ENDCHAR
STARTCHAR Y
ENCODING 89
SWIDTH 600 0
DWIDTH 12 0
BBX 12 20 0 -4
BITMAP
0000
0000
0000
0000
7070
2020
2020
1040
0880
0500
0200
0200
0200
0200
0200
0f80
0000
0000
0000
0000
ENDCHAR
STARTCHAR Z
ENCODING 90
SWIDTH 600 0
DWIDTH 12 0
BBX 12 20 0 -4
BITMAP
0000
0000
0000
0000
3fe0
2020
2040
0080
0100
0200
0200
0400
0800
1020
2020
3fe0
0000
0000
0000
0000
ENDCHAR
STARTCHAR bracketleft
ENCODING 91
SWIDTH 600 0
DWIDTH 12 0
BBX 12 20 0 -4
BITMAP
0000
0000
0000
0000
0780
0400
0400
0400
0400
0400
0400
0400
0400
0400
0400
0400
0400
0400
0780
0000
ENDCHAR
STARTCHAR backslash
ENCODING 92
SWIDTH 600 0
DWIDTH 12 0
BBX 12 20 0 -4
BITMAP
0000
0000
0000
0000
0000
4000
2000
1000
0800
0400
0200
0100
0080
0040
0020
0010
0000
0000
0000
0000
ENDCHAR
STARTCHAR bracketright
ENCODING 93
SWIDTH 600 0
DWIDTH 12 0
BBX 12 20 0 -4
BITMAP
0000
0000
0000
0000
0f00
0100
0100
0100
0100
0100
0100
0100
0100
0100
0100
0100
0100
0100
0f00
0000
ENDCHAR
STARTCHAR asciicircum
ENCODING 94
SWIDTH 600 0
DWIDTH 12 0
BBX 12 20 0 -4
BITMAP
0000
0000
0000
0200
0500
0880
0000
0000
0000
0000
0000
0000
0000
0000
0000
0000
0000
0000
0000
0000
ENDCHAR
STARTCHAR underscore
ENCODING 95
SWIDTH 600 0
DWIDTH 12 0
BBX 12 20 0 -4
BITMAP
0000
0000
0000
0000
0000
0000
0000
0000
0000
0000
0000
0000
0000
0000
0000
0000
0000
fff0
0000
0000
ENDCHAR
STARTCHAR quoteleft
ENCODING 96
SWIDTH 600 0
DWIDTH 12 0
BBX 12 20 0 -4
BITMAP
0000
0000
0000
0400
0200
0100
0000
0000
0000
0000
0000
0000
0000
0000
0000
0000
0000
0000
0000
0000
ENDCHAR
STARTCHAR a
ENCODING 97
SWIDTH 600 0
DWIDTH 12 0
BBX 12 20 0 -4
BITMAP
0000
0000
0000
0000
0000
0000
0000
0f80
1040
0040
07c0
1840
2040
2040
2040
1fa0
0000
0000
0000
0000
ENDCHAR
STARTCHAR b
ENCODING 98
SWIDTH 600 0
DWIDTH 12 0
BBX 12 20 0 -4
BITMAP
0000
0000
0000
3000
1000
1000
1000
1780
1840
1020
1020
1020
1020
1020
1840
3780
0000
0000
0000
0000
ENDCHAR
STARTCHAR c
ENCODING 99
SWIDTH 600 0
DWIDTH 12 0
BBX 12 20 0 -4
BITMAP
0000
0000
0000
0000
0000
0000
0000
07a0
0860
1020
1000
1000
1000
1000
0820
07c0
0000
0000
0000
0000
ENDCHAR
STARTCHAR d
ENCODING 100
SWIDTH 600 0
DWIDTH 12 0
BBX 12 20 0 -4
BITMAP
0000
0000
0000
00c0
0040
0040
0040
0f40
10c0
2040
2040
2040
2040
2040
10c0
0f60
0000
0000
0000
0000
ENDCHAR
STARTCHAR e
ENCODING 101
SWIDTH 600 0
DWIDTH 12 0
BBX 12 20 0 -4
BITMAP
0000
0000
0000
0000
0000
0000
0000
0f80
1040
2020
2020
3fe0
2000
2020
1040
0f80
0000
0000
0000
0000
ENDCHAR
STARTCHAR f
ENCODING 102
SWIDTH 600 0
DWIDTH 12 0
BBX 12 20 0 -4
BITMAP
0000
0000
0000
01c0
0200
0200
0200
0fc0
0200
0200
0200
0200
0200
0200
0200
0fc0
0000
0000
0000
0000
ENDCHAR
STARTCHAR g
ENCODING 103
SWIDTH 600 0
DWIDTH 12 0
BBX 12 20 0 -4
BITMAP
0000
0000
0000
0000
0000
0000
0000
0f60
10c0
2040
2040
2040
2040
2040
10c0
0f40
0040
0040
0080
1f00
ENDCHAR
STARTCHAR h
ENCODING 104
SWIDTH 600 0
DWIDTH 12 0
BBX 12 20 0 -4
BITMAP
0000
0000
0000
3000
1000
1000
1000
1780
1840
1040
1040
1040
1040
1040
1040
38e0
0000
0000
0000
0000
ENDCHAR
STARTCHAR i
ENCODING 105
SWIDTH 600 0
DWIDTH 12 0
BBX 12 20 0 -4
BITMAP
0000
0000
0000
0200
0200
0000
0000
0e00
0200
0200
0200
0200
0200
0200
0200
1fc0
0000
0000
0000
0000
ENDCHAR
STARTCHAR j
ENCODING 106
SWIDTH 600 0
DWIDTH 12 0
BBX 12 20 0 -4
BITMAP
0000
0000
0000
0100
0100
0000
0000
1f00
0100
0100
0100
0100
0100
0100
0100
0100
0100
0100
0200
1c00
ENDCHAR
STARTCHAR k
ENCODING 107
SWIDTH 600 0
DWIDTH 12 0
BBX 12 20 0 -4
BITMAP
0000
0000
0000
3000
1000
1000
1000
11e0
1080
1100
1200
1600
1900
1080
1040
3030
0000
0000
0000
0000
ENDCHAR
STARTCHAR l
ENCODING 108
SWIDTH 600 0
DWIDTH 12 0
BBX 12 20 0 -4
BITMAP
0000
0000
0000
0e00
0200
0200
0200
0200
0200
0200
0200
0200
0200
0200
0200
1fc0
0000
0000
0000
0000
ENDCHAR
STARTCHAR m
ENCODING 109
SWIDTH 600 0
DWIDTH 12 0
BBX 12 20 0 -4
BITMAP
0000
0000
0000
0000
0000
0000
0000
6cc0
3320
2220
2220
2220
2220
2220
2220
7330
0000
0000
0000
0000
ENDCHAR
STARTCHAR n
ENCODING 110
SWIDTH 600 0
DWIDTH 12 0
BBX 12 20 0 -4
BITMAP
0000
0000
0000
0000
0000
0000
0000
3780
1840
1040
1040
1040
1040
1040
1040
38e0
0000
0000
0000
0000
ENDCHAR
STARTCHAR o
ENCODING 111
SWIDTH 600 0
DWIDTH 12 0
BBX 12 20 0 -4
BITMAP
0000
0000
0000
0000
0000
0000
0000
0f80
1040
2020
2020
2020
2020
2020
1040
0f80
0000
0000
0000
0000
ENDCHAR
STARTCHAR p
ENCODING 112
SWIDTH 600 0
DWIDTH 12 0
BBX 12 20 0 -4
BITMAP
0000
0000
0000
0000
0000
0000
0000
3780
1840
1020
1020
1020
1020
1020
1840
1780
1000
1000
1000
3c00
ENDCHAR
STARTCHAR q
ENCODING 113
SWIDTH 600 0
DWIDTH 12 0
BBX 12 20 0 -4
BITMAP
0000
0000
0000
0000
0000
0000
0000
0f60
10c0
2040
2040
2040
2040
2040
10c0
0f40
0040
0040
0040
01e0
ENDCHAR
STARTCHAR r
ENCODING 114
SWIDTH 600 0
DWIDTH 12 0
BBX 12 20 0 -4
BITMAP
0000
0000
0000
0000
0000
0000
0000
3bc0
0c20
0800
0800
0800
0800
0800
0800
3f00
0000
0000
0000
0000
ENDCHAR
STARTCHAR s
ENCODING 115
SWIDTH 600 0
DWIDTH 12 0
BBX 12 20 0 -4
BITMAP
0000
0000
0000
0000
0000
0000
0000
0fa0
1060
2020
1000
0f80
0040
2020
3040
2f80
0000
0000
0000
0000
ENDCHAR
STARTCHAR t
ENCODING 116
SWIDTH 600 0
DWIDTH 12 0
BBX 12 20 0 -4
BITMAP
0000
0000
0000
0000
0400
0400
0400
1fc0
0400
0400
0400
0400
0400
0440
0440
0380
0000
0000
0000
0000
ENDCHAR
STARTCHAR u
ENCODING 117
SWIDTH 600 0
DWIDTH 12 0
BBX 12 20 0 -4
BITMAP
0000
0000
0000
0000
0000
0000
0000
30c0
1040
1040
1040
1040
1040
1040
10c0
0f60
0000
0000
0000
0000
ENDCHAR
STARTCHAR v
ENCODING 118
SWIDTH 600 0
DWIDTH 12 0
BBX 12 20 0 -4
BITMAP
0000
0000
0000
0000
0000
0000
0000
7070
2020
1040
1040
0880
0880
0500
0500
0200
0000
0000
0000
0000
ENDCHAR
STARTCHAR w
ENCODING 119
SWIDTH 600 0
DWIDTH 12 0
BBX 12 20 0 -4
BITMAP
0000
0000
0000
0000
0000
0000
0000
7070
2020
2220
2220
1540
1540
0880
0880
0880
0000
0000
0000
0000
ENDCHAR
STARTCHAR x
ENCODING 120
SWIDTH 600 0
DWIDTH 12 0
BBX 12 20 0 -4
BITMAP
0000
0000
0000
0000
0000
0000
0000
78f0
1040
0880
0500
0200
0500
0880
1040
78f0
0000
0000
0000
0000
ENDCHAR
STARTCHAR y
ENCODING 121
SWIDTH 600 0
DWIDTH 12 0
BBX 12 20 0 -4
BITMAP
0000
0000
0000
0000
0000
0000
0000
7070
2020
1040
1040
0880
0880
0500
0500
0200
0200
0400
0400
1e00
ENDCHAR
STARTCHAR z
ENCODING 122
SWIDTH 600 0
DWIDTH 12 0
BBX 12 20 0 -4
BITMAP
0000
0000
0000
0000
0000
0000
0000
3fe0
2040
2080
0100
0200
0400
0820
1020
3fe0
0000
0000
0000
0000
ENDCHAR
STARTCHAR braceleft
ENCODING 123
SWIDTH 600 0
DWIDTH 12 0
BBX 12 20 0 -4
BITMAP
0000
0000
0000
0000
0180
0200
0200
0200
0200
0200
0200
0c00
0200
0200
0200
0200
0200
0200
0180
0000
ENDCHAR
STARTCHAR bar
ENCODING 124
SWIDTH 600 0
DWIDTH 12 0
BBX 12 20 0 -4
BITMAP
0000
0000
0000
0000
0200
0200
0200
0200
0200
0200
0200
0200
0200
0200
0200
0200
0200
0200
0200
0200
ENDCHAR
STARTCHAR braceright
ENCODING 125
SWIDTH 600 0
DWIDTH 12 0
BBX 12 20 0 -4
BITMAP
0000
0000
0000
0000
0c00
0200
0200
0200
0200
0200
0200
0180
0200
0200
0200
0200
0200
0200
0c00
0000
ENDCHAR
STARTCHAR asciitilde
ENCODING 126
SWIDTH 600 0
DWIDTH 12 0
BBX 12 20 0 -4
BITMAP
0000
0000
0000
1c20
2220
21c0
0000
0000
0000
0000
0000
0000
0000
0000
0000
0000
0000
0000
0000
0000
ENDCHAR
STARTCHAR C177
ENCODING -1
SWIDTH 600 0
DWIDTH 12 0
BBX 12 20 0 -4
BITMAP
0000
0000
0000
0000
0f80
0f80
0f80
0f80
0f80
0f80
0f80
0f80
0f80
0f80
0f80
0f80
0000
0000
0000
0000
ENDCHAR
STARTCHAR C200
ENCODING -1
SWIDTH 600 0
DWIDTH 12 0
BBX 12 20 0 -4
BITMAP
0000
0000
0000
0000
0f80
0f80
0f80
0f80
0f80
0f80
0f80
0f80
0f80
0f80
0f80
0f80
0000
0000
0000
0000
ENDCHAR
STARTCHAR C201
ENCODING -1
SWIDTH 600 0
DWIDTH 12 0
BBX 12 20 0 -4
BITMAP
0000
0000
0000
0000
0f80
0f80
0f80
0f80
0f80
0f80
0f80
0f80
0f80
0f80
0f80
0f80
0000
0000
0000
0000
ENDCHAR
STARTCHAR C202
ENCODING -1
SWIDTH 600 0
DWIDTH 12 0
BBX 12 20 0 -4
BITMAP
0000
0000
0000
0000
0f80
0f80
0f80
0f80
0f80
0f80
0f80
0f80
0f80
0f80
0f80
0f80
0000
0000
0000
0000
ENDCHAR
STARTCHAR C203
ENCODING -1
SWIDTH 600 0
DWIDTH 12 0
BBX 12 20 0 -4
BITMAP
0000
0000
0000
0000
0f80
0f80
0f80
0f80
0f80
0f80
0f80
0f80
0f80
0f80
0f80
0f80
0000
0000
0000
0000
ENDCHAR
STARTCHAR C204
ENCODING -1
SWIDTH 600 0
DWIDTH 12 0
BBX 12 20 0 -4
BITMAP
0000
0000
0000
0000
0f80
0f80
0f80
0f80
0f80
0f80
0f80
0f80
0f80
0f80
0f80
0f80
0000
0000
0000
0000
ENDCHAR
STARTCHAR C205
ENCODING -1
SWIDTH 600 0
DWIDTH 12 0
BBX 12 20 0 -4
BITMAP
0000
0000
0000
0000
0f80
0f80
0f80
0f80
0f80
0f80
0f80
0f80
0f80
0f80
0f80
0f80
0000
0000
0000
0000
ENDCHAR
STARTCHAR C206
ENCODING -1
SWIDTH 600 0
DWIDTH 12 0
BBX 12 20 0 -4
BITMAP
0000
0000
0000
0000
0f80
0f80
0f80
0f80
0f80
0f80
0f80
0f80
0f80
0f80
0f80
0f80
0000
0000
0000
0000
ENDCHAR
STARTCHAR C207
ENCODING -1
SWIDTH 600 0
DWIDTH 12 0
BBX 12 20 0 -4
BITMAP
0000
0000
0000
0000
0f80
0f80
0f80
0f80
0f80
0f80
0f80
0f80
0f80
0f80
0f80
0f80
0000
0000
0000
0000
ENDCHAR
STARTCHAR C210
ENCODING -1
SWIDTH 600 0
DWIDTH 12 0
BBX 12 20 0 -4
BITMAP
0000
0000
0000
0000
0f80
0f80
0f80
0f80
0f80
0f80
0f80
0f80
0f80
0f80
0f80
0f80
0000
0000
0000
0000
ENDCHAR
STARTCHAR C211
ENCODING -1
SWIDTH 600 0
DWIDTH 12 0
BBX 12 20 0 -4
BITMAP
0000
0000
0000
0000
0f80
0f80
0f80
0f80
0f80
0f80
0f80
0f80
0f80
0f80
0f80
0f80
0000
0000
0000
0000
ENDCHAR
STARTCHAR C212
ENCODING -1
SWIDTH 600 0
DWIDTH 12 0
BBX 12 20 0 -4
BITMAP
0000
0000
0000
0000
0f80
0f80
0f80
0f80
0f80
0f80
0f80
0f80
0f80
0f80
0f80
0f80
0000
0000
0000
0000
ENDCHAR
STARTCHAR C213
ENCODING -1
SWIDTH 600 0
DWIDTH 12 0
BBX 12 20 0 -4
BITMAP
0000
0000
0000
0000
0f80
0f80
0f80
0f80
0f80
0f80
0f80
0f80
0f80
0f80
0f80
0f80
0000
0000
0000
0000
ENDCHAR
STARTCHAR C214
ENCODING -1
SWIDTH 600 0
DWIDTH 12 0
BBX 12 20 0 -4
BITMAP
0000
0000
0000
0000
0f80
0f80
0f80
0f80
0f80
0f80
0f80
0f80
0f80
0f80
0f80
0f80
0000
0000
0000
0000
ENDCHAR
STARTCHAR C215
ENCODING -1
SWIDTH 600 0
DWIDTH 12 0
BBX 12 20 0 -4
BITMAP
0000
0000
0000
0000
0f80
0f80
0f80
0f80
0f80
0f80
0f80
0f80
0f80
0f80
0f80
0f80
0000
0000
0000
0000
ENDCHAR
STARTCHAR C216
ENCODING -1
SWIDTH 600 0
DWIDTH 12 0
BBX 12 20 0 -4
BITMAP
0000
0000
0000
0000
0f80
0f80
0f80
0f80
0f80
0f80
0f80
0f80
0f80
0f80
0f80
0f80
0000
0000
0000
0000
ENDCHAR
STARTCHAR C217
ENCODING -1
SWIDTH 600 0
DWIDTH 12 0
BBX 12 20 0 -4
BITMAP
0000
0000
0000
0000
0f80
0f80
0f80
0f80
0f80
0f80
0f80
0f80
0f80
0f80
0f80
0f80
0000
0000
0000
0000
ENDCHAR
STARTCHAR C220
ENCODING -1
SWIDTH 600 0
DWIDTH 12 0
BBX 12 20 0 -4
BITMAP
0000
0000
0000
0000
0f80
0f80
0f80
0f80
0f80
0f80
0f80
0f80
0f80
0f80
0f80
0f80
0000
0000
0000
0000
ENDCHAR
STARTCHAR C221
ENCODING -1
SWIDTH 600 0
DWIDTH 12 0
BBX 12 20 0 -4
BITMAP
0000
0000
0000
0000
0100
0200
0200
0000
0000
0000
0000
0000
0000
0000
0000
0000
0000
0000
0000
0000
ENDCHAR
STARTCHAR C222
ENCODING -1
SWIDTH 600 0
DWIDTH 12 0
BBX 12 20 0 -4
BITMAP
0000
0000
0000
0000
0200
0200
0400
0000
0000
0000
0000
0000
0000
0000
0000
0000
0000
0000
0000
0000
ENDCHAR
STARTCHAR C223
ENCODING -1
SWIDTH 600 0
DWIDTH 12 0
BBX 12 20 0 -4
BITMAP
0000
0000
0000
0000
0f80
0f80
0f80
0f80
0f80
0f80
0f80
0f80
0f80
0f80
0f80
0f80
0000
0000
0000
0000
ENDCHAR
STARTCHAR C224
ENCODING -1
SWIDTH 600 0
DWIDTH 12 0
BBX 12 20 0 -4
BITMAP
0000
0000
0000
0000
0f80
0f80
0f80
0f80
0f80
0f80
0f80
0f80
0f80
0f80
0f80
0f80
0000
0000
0000
0000
ENDCHAR
STARTCHAR C225
ENCODING -1
SWIDTH 600 0
DWIDTH 12 0
BBX 12 20 0 -4
BITMAP
0000
0000
0000
0000
0f80
0f80
0f80
0f80
0f80
0f80
0f80
0f80
0f80
0f80
0f80
0f80
0000
0000
0000
0000
ENDCHAR
STARTCHAR C226
ENCODING -1
SWIDTH 600 0
DWIDTH 12 0
BBX 12 20 0 -4
BITMAP
0000
0000
0000
0000
0f80
0f80
0f80
0f80
0f80
0f80
0f80
0f80
0f80
0f80
0f80
0f80
0000
0000
0000
0000
ENDCHAR
STARTCHAR C227
ENCODING -1
SWIDTH 600 0
DWIDTH 12 0
BBX 12 20 0 -4
BITMAP
0000
0000
0000
0000
0f80
0f80
0f80
0f80
0f80
0f80
0f80
0f80
0f80
0f80
0f80
0f80
0000
0000
0000
0000
ENDCHAR
STARTCHAR C230
ENCODING -1
SWIDTH 600 0
DWIDTH 12 0
BBX 12 20 0 -4
BITMAP
0000
0000
0000
0000
0f80
0f80
0f80
0f80
0f80
0f80
0f80
0f80
0f80
0f80
0f80
0f80
0000
0000
0000
0000
ENDCHAR
STARTCHAR C231
ENCODING -1
SWIDTH 600 0
DWIDTH 12 0
BBX 12 20 0 -4
BITMAP
0000
0000
0000
0000
0f80
0f80
0f80
0f80
0f80
0f80
0f80
0f80
0f80
0f80
0f80
0f80
0000
0000
0000
0000
ENDCHAR
STARTCHAR C232
ENCODING -1
SWIDTH 600 0
DWIDTH 12 0
BBX 12 20 0 -4
BITMAP
0000
0000
0000
0000
0f80
0f80
0f80
0f80
0f80
0f80
0f80
0f80
0f80
0f80
0f80
0f80
0000
0000
0000
0000
ENDCHAR
STARTCHAR C233
ENCODING -1
SWIDTH 600 0
DWIDTH 12 0
BBX 12 20 0 -4
BITMAP
0000
0000
0000
0000
0f80
0f80
0f80
0f80
0f80
0f80
0f80
0f80
0f80
0f80
0f80
0f80
0000
0000
0000
0000
ENDCHAR
STARTCHAR C234
ENCODING -1
SWIDTH 600 0
DWIDTH 12 0
BBX 12 20 0 -4
BITMAP
0000
0000
0000
0000
0f80
0f80
0f80
0f80
0f80
0f80
0f80
0f80
0f80
0f80
0f80
0f80
0000
0000
0000
0000
ENDCHAR
STARTCHAR C235
ENCODING -1
SWIDTH 600 0
DWIDTH 12 0
BBX 12 20 0 -4
BITMAP
0000
0000
0000
0000
0f80
0f80
0f80
0f80
0f80
0f80
0f80
0f80
0f80
0f80
0f80
0f80
0000
0000
0000
0000
ENDCHAR
STARTCHAR C236
ENCODING -1
SWIDTH 600 0
DWIDTH 12 0
BBX 12 20 0 -4
BITMAP
0000
0000
0000
0000
0f80
0f80
0f80
0f80
0f80
0f80
0f80
0f80
0f80
0f80
0f80
0f80
0000
0000
0000
0000
ENDCHAR
STARTCHAR C237
ENCODING -1
SWIDTH 600 0
DWIDTH 12 0
BBX 12 20 0 -4
BITMAP
0000
0000
0000
0000
0f80
0f80
0f80
0f80
0f80
0f80
0f80
0f80
0f80
0f80
0f80
0f80
0000
0000
0000
0000
ENDCHAR
STARTCHAR C240
ENCODING 160
SWIDTH 600 0
DWIDTH 12 0
BBX 12 20 0 -4
BITMAP
0000
0000
0000
0000
0000
0000
0000
0000
0000
0000
0000
0000
0000
0000
0000
0000
0000
0000
0000
0000
ENDCHAR
STARTCHAR exclamdown
ENCODING 161
SWIDTH 600 0
DWIDTH 12 0
BBX 12 20 0 -4
BITMAP
0000
0000
30c0
0000
7fe0
1020
1020
1000
1080
1f80
1080
1000
1000
1020
1020
7fe0
0000
0000
0000
0000
ENDCHAR
STARTCHAR cent
ENCODING 162
SWIDTH 600 0
DWIDTH 12 0
BBX 12 20 0 -4
BITMAP
0000
0000
0000
0000
0200
0200
0f40
10c0
2040
2000
2000
2000
2000
1040
0f80
0200
0200
0000
0000
0000
ENDCHAR
STARTCHAR sterling
ENCODING 184
SWIDTH 600 0
DWIDTH 12 0
BBX 12 20 0 -4
BITMAP
0000
0000
0000
0000
0f00
1080
1000
1000
0800
1f00
0800
0800
0800
0800
1000
1fc0
0000
0000
0000
0000
ENDCHAR
STARTCHAR currency
ENCODING 164
SWIDTH 600 0
DWIDTH 12 0
BBX 12 20 0 -4
BITMAP
0000
0000
0000
0000
0000
0000
1040
0f80
1040
1040
1040
1040
0f80
1040
0000
0000
0000
0000
0000
0000
ENDCHAR
STARTCHAR yen
ENCODING 165
SWIDTH 600 0
DWIDTH 12 0
BBX 12 20 0 -4
BITMAP
0000
0000
0000
0000
7070
2020
2020
7070
0880
0500
7ff0
0200
0200
0200
0200
0f80
0000
0000
0000
0000
ENDCHAR
STARTCHAR brokenbar
ENCODING 166
SWIDTH 600 0
DWIDTH 12 0
BBX 12 20 0 -4
BITMAP
0000
0000
0000
0000
0200
0200
0200
0200
0200
0200
0200
0000
0000
0200
0200
0200
0200
0200
0200
0200
ENDCHAR
STARTCHAR section
ENCODING 167
SWIDTH 600 0
DWIDTH 12 0
BBX 12 20 0 -4
BITMAP
0000
0000
0000
0000
0fc0
1040
1040
0800
1400
1200
1100
0880
0440
0240
0140
0080
1040
1040
1f80
0000
ENDCHAR
STARTCHAR dieresis
ENCODING 168
SWIDTH 600 0
DWIDTH 12 0
BBX 12 20 0 -4
BITMAP
0000
0000
0000
0880
0880
0000
0000
0000
0000
0000
0000
0000
0000
0000
0000
0000
0000
0000
0000
0000
ENDCHAR
STARTCHAR copyright
ENCODING 169
SWIDTH 600 0
DWIDTH 12 0
BBX 12 20 0 -4
BITMAP
0000
0000
0000
0000
1fc0
2020
4010
4790
4850
4810
4810
4810
4850
4790
4010
2020
1fc0
0000
0000
0000
ENDCHAR
STARTCHAR ordfeminine
ENCODING 170
SWIDTH 600 0
DWIDTH 12 0
BBX 12 20 0 -4
BITMAP
0000
0000
0000
0f80
0040
0fc0
1040
0fc0
0000
1fc0
0000
0000
0000
0000
0000
0000
0000
0000
0000
0000
ENDCHAR
STARTCHAR guillemotleft
ENCODING 171
SWIDTH 600 0
DWIDTH 12 0
BBX 12 20 0 -4
BITMAP
0000
0000
0000
0000
0000
0000
0000
0000
0000
0000
0440
0880
1100
0880
0440
0000
0000
0000
0000
0000
ENDCHAR
STARTCHAR logicalnot
ENCODING 172
SWIDTH 600 0
DWIDTH 12 0
BBX 12 20 0 -4
BITMAP
0000
0000
0000
0000
0000
0000
0000
0000
0000
0000
1fc0
0040
0040
0000
0000
0000
0000
0000
0000
0000
ENDCHAR
STARTCHAR hyphen
ENCODING 173
SWIDTH 600 0
DWIDTH 12 0
BBX 12 20 0 -4
BITMAP
0000
0000
0000
0000
0000
0000
0000
0000
0000
0000
0000
3fe0
0000
0000
0000
0000
0000
0000
0000
0000
ENDCHAR
STARTCHAR registered
ENCODING 174
SWIDTH 600 0
DWIDTH 12 0
BBX 12 20 0 -4
BITMAP
0000
0000
0000
0000
1fc0
2020
4010
4f10
4890
4890
4890
4f10
4910
4890
4010
2020
1fc0
0000
0000
0000
ENDCHAR
STARTCHAR macron
ENCODING 175
SWIDTH 600 0
DWIDTH 12 0
BBX 12 20 0 -4
BITMAP
0000
0000
fff0
0000
0000
0000
0000
0000
0000
0000
0000
0000
0000
0000
0000
0000
0000
0000
0000
0000
ENDCHAR
STARTCHAR degree
ENCODING 176
SWIDTH 600 0
DWIDTH 12 0
BBX 12 20 0 -4
BITMAP
0000
0000
0000
0700
0880
0880
0880
0700
0000
0000
0000
0000
0000
0000
0000
0000
0000
0000
0000
0000
ENDCHAR
STARTCHAR plusminus
ENCODING 177
SWIDTH 600 0
DWIDTH 12 0
BBX 12 20 0 -4
BITMAP
0000
0000
0000
0000
0000
0000
0000
0200
0200
0200
1fc0
0200
0200
0200
0000
1fc0
0000
0000
0000
0000
ENDCHAR
STARTCHAR twosuperior
ENCODING 178
SWIDTH 600 0
DWIDTH 12 0
BBX 12 20 0 -4
BITMAP
0000
0000
0000
0700
0880
0080
0700
0800
0f80
0000
0000
0000
0000
0000
0000
0000
0000
0000
0000
0000
ENDCHAR
STARTCHAR threesuperior
ENCODING 168
SWIDTH 600 0
DWIDTH 12 0
BBX 12 20 0 -4
BITMAP
0000
0000
0000
0700
0880
0300
0080
0880
0700
0000
0000
0000
0000
0000
0000
0000
0000
0000
0000
0000
ENDCHAR
STARTCHAR acute
ENCODING 180
SWIDTH 600 0
DWIDTH 12 0
BBX 12 20 0 -4
BITMAP
0000
0000
0000
0100
0200
0400
0000
0000
0000
0000
0000
0000
0000
0000
0000
0000
0000
0000
0000
0000
ENDCHAR
STARTCHAR mu
ENCODING 181
SWIDTH 600 0
DWIDTH 12 0
BBX 12 20 0 -4
BITMAP
0000
0000
0000
0000
0000
0000
0000
1040
1040
1040
1040
1040
1040
1040
18c0
1720
1000
1000
1000
0000
ENDCHAR
STARTCHAR paragraph
ENCODING 182
SWIDTH 600 0
DWIDTH 12 0
BBX 12 20 0 -4
BITMAP
0000
0000
0000
0000
07e0
1e80
1e80
3e80
3e80
1e80
1e80
0680
0280
0280
0280
0280
0280
0ee0
0000
0000
ENDCHAR
STARTCHAR periodcentered
ENCODING 183
SWIDTH 600 0
DWIDTH 12 0
BBX 12 20 0 -4
BITMAP
0000
0000
0000
0000
0000
0000
0000
0000
0000
0200
0200
0000
0000
0000
0000
0000
0000
0000
0000
0000
ENDCHAR
STARTCHAR cedilla
ENCODING 184
SWIDTH 600 0
DWIDTH 12 0
BBX 12 20 0 -4
BITMAP
0000
0000
0000
0000
0000
0000
0000
0000
0000
0000
0000
0000
0000
0000
0000
0000
0200
0100
0100
0600
ENDCHAR
STARTCHAR onesuperior
ENCODING 185
SWIDTH 600 0
DWIDTH 12 0
BBX 12 20 0 -4
BITMAP
0000
0000
0000
0200
0e00
0200
0200
0200
0f80
0000
0000
0000
0000
0000
0000
0000
0000
0000
0000
0000
ENDCHAR
STARTCHAR ordmasculine
ENCODING 186
SWIDTH 600 0
DWIDTH 12 0
BBX 12 20 0 -4
BITMAP
0000
0000
0000
0f80
1040
1040
1040
0f80
0000
1fc0
0000
0000
0000
0000
0000
0000
0000
0000
0000
0000
ENDCHAR
STARTCHAR guillemotright
ENCODING 187
SWIDTH 600 0
DWIDTH 12 0
BBX 12 20 0 -4
BITMAP
0000
0000
0000
0000
0000
0000
0000
0000
0000
0000
1100
0880
0440
0880
1100
0000
0000
0000
0000
0000
ENDCHAR
STARTCHAR onequarter
ENCODING 188
SWIDTH 600 0
DWIDTH 12 0
BBX 12 20 0 -4
BITMAP
0000
0000
0000
0000
0000
1010
7020
1040
1080
1100
7e20
0460
08a0
1120
21f0
4020
0000
0000
0000
0000
ENDCHAR
STARTCHAR onehalf
ENCODING 189
SWIDTH 600 0
DWIDTH 12 0
BBX 12 20 0 -4
BITMAP
0000
0000
0000
0000
0000
1010
7020
1040
1080
1100
7ee0
0510
0810
10e0
2100
41f0
0000
0000
0000
0000
ENDCHAR
STARTCHAR threequarters
ENCODING 190
SWIDTH 600 0
DWIDTH 12 0
BBX 12 20 0 -4
BITMAP
0000
0000
0000
0000
0000
3810
4420
1840
0480
4500
3a20
0460
08a0
1120
21f0
4020
0000
0000
0000
0000
ENDCHAR
STARTCHAR questiondown
ENCODING 191
SWIDTH 600 0
DWIDTH 12 0
BBX 12 20 0 -4
BITMAP
0000
0000
0000
0000
0000
18c0
0000
0f80
1040
2020
2020
3fe0
2000
2020
1040
0f80
0000
0000
0000
0000
ENDCHAR
STARTCHAR cyr-A
ENCODING 192
SWIDTH 600 0
DWIDTH 12 0
BBX 12 20 0 -4
BITMAP
0000
0000
0000
0000
0200
0200
0200
0500
0500
0880
0880
1fc0
1040
2020
2020
7070
0000
0000
0000
0000
ENDCHAR
STARTCHAR cyr-Be
ENCODING 193
SWIDTH 600 0
DWIDTH 12 0
BBX 12 20 0 -4
BITMAP
0000
0000
0000
0000
7fe0
1020
1000
1000
1000
1fc0
1020
1010
1010
1010
1020
7fc0
0000
0000
0000
0000
ENDCHAR
STARTCHAR cyr-Ve
ENCODING 194
SWIDTH 600 0
DWIDTH 12 0
BBX 12 20 0 -4
BITMAP
0000
0000
0000
0000
7f80
1040
1020
1020
1040
1fc0
1020
1010
1010
1010
1020
7fc0
0000
0000
0000
0000
ENDCHAR
STARTCHAR cyr-Ghe
ENCODING 195
SWIDTH 600 0
DWIDTH 12 0
BBX 12 20 0 -4
BITMAP
0000
0000
0000
0000
7fe0
1020
1020
1000
1000
1000
1000
1000
1000
1000
1000
7e00
0000
0000
0000
0000
ENDCHAR
STARTCHAR cyr-De
ENCODING 196
SWIDTH 600 0
DWIDTH 12 0
BBX 12 20 0 -4
BITMAP
0000
0000
0000
0000
3ff0
1020
1020
1020
1020
1020
1020
1020
1020
1020
2020
7ff0
4010
4010
0000
0000
ENDCHAR
STARTCHAR cyr-Ie
ENCODING 197
SWIDTH 600 0
DWIDTH 12 0
BBX 12 20 0 -4
BITMAP
0000
0000
0000
0000
7fe0
1020
1020
1000
1080
1f80
1080
1000
1000
1020
1020
7fe0
0000
0000
0000
0000
ENDCHAR
STARTCHAR cyr-Zhe
ENCODING 198
SWIDTH 600 0
DWIDTH 12 0
BBX 12 20 0 -4
BITMAP
0000
0000
0000
0000
6730
2220
2220
1240
0a80
0700
0a80
1240
1240
2220
2220
6730
0000
0000
0000
0000
ENDCHAR
STARTCHAR cyr-Ze
ENCODING 199
SWIDTH 600 0
DWIDTH 12 0
BBX 12 20 0 -4
BITMAP
0000
0000
0000
0000
2f00
3080
2040
0040
0080
0780
0040
0020
0020
2020
3040
2f80
0000
0000
0000
0000
ENDCHAR
STARTCHAR cyr-I
ENCODING 200
SWIDTH 600 0
DWIDTH 12 0
BBX 12 20 0 -4
BITMAP
0000
0000
0000
0000
7070
2020
2020
2060
20a0
2120
2220
2420
2820
3020
2020
7070
0000
0000
0000
0000
ENDCHAR
STARTCHAR cyr-I-short
ENCODING 201
SWIDTH 600 0
DWIDTH 12 0
BBX 12 20 0 -4
BITMAP
0000
0000
0880
0700
7070
2020
2020
2060
20a0
2120
2220
2420
2820
3020
2020
7070
0000
0000
0000
0000
ENDCHAR
STARTCHAR cyr-Ka
ENCODING 202
SWIDTH 600 0
DWIDTH 12 0
BBX 12 20 0 -4
BITMAP
0000
0000
0000
0000
71e0
2080
2100
2200
2400
2800
3400
2200
2100
2080
2040
7030
0000
0000
0000
0000
ENDCHAR
STARTCHAR cyr-El
ENCODING 203
SWIDTH 600 0
DWIDTH 12 0
BBX 12 20 0 -4
BITMAP
0000
0000
0000
0000
1ff0
0820
0820
0820
0820
0820
0820
0820
0820
0820
4820
30f0
0000
0000
0000
0000
ENDCHAR
STARTCHAR cyr-Em
ENCODING 204
SWIDTH 600 0
DWIDTH 12 0
BBX 12 20 0 -4
BITMAP
0000
0000
0000
0000
6030
3060
3060
28a0
28a0
2520
2520
2220
2220
2020
2020
7070
0000
0000
0000
0000
ENDCHAR
STARTCHAR cyr-En
ENCODING 205
SWIDTH 600 0
DWIDTH 12 0
BBX 12 20 0 -4
BITMAP
0000
0000
0000
0000
7070
2020
2020
2020
2020
3fe0
2020
2020
2020
2020
2020
7070
0000
0000
0000
0000
ENDCHAR
STARTCHAR cyr-O
ENCODING 206
SWIDTH 600 0
DWIDTH 12 0
BBX 12 20 0 -4
BITMAP
0000
0000
0000
0000
0f80
3060
2020
4010
4010
4010
4010
4010
4010
2020
3060
0f80
0000
0000
0000
0000
ENDCHAR
STARTCHAR cyr-Pe
ENCODING 207
SWIDTH 600 0
DWIDTH 12 0
BBX 12 20 0 -4
BITMAP
0000
0000
0000
0000
7ff0
2020
2020
2020
2020
2020
2020
2020
2020
2020
2020
7070
0000
0000
0000
0000
ENDCHAR
STARTCHAR cyr-Er
ENCODING 208
SWIDTH 600 0
DWIDTH 12 0
BBX 12 20 0 -4
BITMAP
0000
0000
0000
0000
7f80
1040
1020
1020
1020
1040
1f80
1000
1000
1000
1000
7e00
0000
0000
0000
0000
ENDCHAR
STARTCHAR cyr-Es
ENCODING 209
SWIDTH 600 0
DWIDTH 12 0
BBX 12 20 0 -4
BITMAP
0000
0000
0000
0000
07d0
1830
1010
2000
2000
2000
2000
2000
2000
1010
1830
07c0
0000
0000
0000
0000
ENDCHAR
STARTCHAR cyr-Te
ENCODING 210
SWIDTH 600 0
DWIDTH 12 0
BBX 12 20 0 -4
BITMAP
0000
0000
0000
0000
7ff0
4210
4210
0200
0200
0200
0200
0200
0200
0200
0200
0f80
0000
0000
0000
0000
ENDCHAR
STARTCHAR cyr-U
ENCODING 211
SWIDTH 600 0
DWIDTH 12 0
BBX 12 20 0 -4
BITMAP
0000
0000
0000
0000
7070
2020
1040
1040
0880
0880
0500
0500
0200
0200
2400
1800
0000
0000
0000
0000
ENDCHAR
STARTCHAR cyr-Ef
ENCODING 212
SWIDTH 600 0
DWIDTH 12 0
BBX 12 20 0 -4
BITMAP
0000
0000
0700
0200
0f80
3260
2220
4210
4210
4210
4210
2220
3260
0f80
0200
0700
0000
0000
0000
0000
ENDCHAR
STARTCHAR cyr-Kha
ENCODING 213
SWIDTH 600 0
DWIDTH 12 0
BBX 12 20 0 -4
BITMAP
0000
0000
0000
0000
78f0
2020
1040
0880
0500
0200
0200
0500
0880
1040
2020
78f0
0000
0000
0000
0000
ENDCHAR
STARTCHAR cyr-Tse
ENCODING 214
SWIDTH 600 0
DWIDTH 12 0
BBX 12 20 0 -4
BITMAP
0000
0000
0000
0000
78f0
2020
2020
2020
2020
2020
2020
2020
2020
2020
2020
7ff0
0010
0010
0000
0000
ENDCHAR
STARTCHAR cyr-Che
ENCODING 215
SWIDTH 600 0
DWIDTH 12 0
BBX 12 20 0 -4
BITMAP
0000
0000
0000
0000
79e0
2040
2040
2040
2040
20c0
2140
1e40
0040
0040
0040
01e0
0000
0000
0000
0000
ENDCHAR
STARTCHAR cyr-Sha
ENCODING 216
SWIDTH 600 0
DWIDTH 12 0
BBX 12 20 0 -4
BITMAP
0000
0000
0000
0000
7770
2220
2220
2220
2220
2220
2220
2220
2220
2220
2220
7ff0
0000
0000
0000
0000
ENDCHAR
STARTCHAR cyr-Shcha
ENCODING 217
SWIDTH 600 0
DWIDTH 12 0
BBX 12 20 0 -4
BITMAP
0000
0000
0000
0000
7770
2220
2220
2220
2220
2220
2220
2220
2220
2220
2220
7ff0
0010
0010
0000
0000
ENDCHAR
STARTCHAR cyr-Ier
ENCODING 218
SWIDTH 600 0
DWIDTH 12 0
BBX 12 20 0 -4
BITMAP
0000
0000
0000
0000
7c00
4800
4800
0800
0800
0fc0
0820
0810
0810
0810
0820
3fc0
0000
0000
0000
0000
ENDCHAR
STARTCHAR cyr-Iery
ENCODING 219
SWIDTH 600 0
DWIDTH 12 0
BBX 12 20 0 -4
BITMAP
0000
0000
0000
0000
7070
2020
2020
2020
2020
3e20
2120
20a0
20a0
20a0
2120
7e70
0000
0000
0000
0000
ENDCHAR
STARTCHAR cyr-Ierik
ENCODING 220
SWIDTH 600 0
DWIDTH 12 0
BBX 12 20 0 -4
BITMAP
0000
0000
0000
0000
3800
1000
1000
1000
1000
1fc0
1020
1010
1010
1010
1020
3fc0
0000
0000
0000
0000
ENDCHAR
STARTCHAR cyr-E-rev
ENCODING 221
SWIDTH 600 0
DWIDTH 12 0
BBX 12 20 0 -4
BITMAP
0000
0000
0000
0000
0f80
3060
2020
0010
0010
0ff0
0010
0010
0010
2020
3060
0f80
0000
0000
0000
0000
ENDCHAR
STARTCHAR cyr-Yu
ENCODING 222
SWIDTH 600 0
DWIDTH 12 0
BBX 12 20 0 -4
BITMAP
0000
0000
0000
0000
71c0
2220
2410
2410
2410
3c10
2410
2410
2410
2410
2220
71c0
0000
0000
0000
0000
ENDCHAR
STARTCHAR cyr-Ya
ENCODING 223
SWIDTH 600 0
DWIDTH 12 0
BBX 12 20 0 -4
BITMAP
0000
0000
0000
0000
0fe0
1040
2040
2040
2040
1040
0fc0
0440
0840
0840
1040
61e0
0000
0000
0000
0000
ENDCHAR
STARTCHAR cyr-a
ENCODING 224
SWIDTH 600 0
DWIDTH 12 0
BBX 12 20 0 -4
BITMAP
0000
0000
0000
0000
0000
0000
0000
0f80
1040
0040
07c0
1840
2040
2040
2040
1fa0
0000
0000
0000
0000
ENDCHAR
STARTCHAR cyr-be
ENCODING 225
SWIDTH 600 0
DWIDTH 12 0
BBX 12 20 0 -4
BITMAP
0000
0000
0000
0060
0f80
1000
2000
2f80
3040
2020
2020
2020
2020
2020
1040
0f80
0000
0000
0000
0000
ENDCHAR
STARTCHAR cyr-ve
ENCODING 226
SWIDTH 600 0
DWIDTH 12 0
BBX 12 20 0 -4
BITMAP
0000
0000
0000
0000
0000
0000
0000
3f80
1040
1040
1040
1fc0
1020
1020
1020
3fc0
0000
0000
0000
0000
ENDCHAR
STARTCHAR cyr-ghe
ENCODING 227
SWIDTH 600 0
DWIDTH 12 0
BBX 12 20 0 -4
BITMAP
0000
0000
0000
0000
0000
0000
0000
3fe0
0820
0820
0800
0800
0800
0800
0800
3e00
0000
0000
0000
0000
ENDCHAR
STARTCHAR cyr-de
ENCODING 228
SWIDTH 600 0
DWIDTH 12 0
BBX 12 20 0 -4
BITMAP
0000
0000
0000
0000
0000
0000
0000
3fe0
1040
1040
1040
1040
1040
1040
2040
7fe0
4020
4020
0000
0000
ENDCHAR
STARTCHAR cyr-ie
ENCODING 229
SWIDTH 600 0
DWIDTH 12 0
BBX 12 20 0 -4
BITMAP
0000
0000
0000
0000
0000
0000
0000
0f80
1040
2020
2020
3fe0
2000
2020
1040
0f80
0000
0000
0000
0000
ENDCHAR
STARTCHAR cyr-zhe
ENCODING 230
SWIDTH 600 0
DWIDTH 12 0
BBX 12 20 0 -4
BITMAP
0000
0000
0000
0000
0000
0000
0000
3760
1240
1240
0a80
0700
0a80
1240
2220
6730
0000
0000
0000
0000
ENDCHAR
STARTCHAR cyr-z
ENCODING 231
SWIDTH 600 0
DWIDTH 12 0
BBX 12 20 0 -4
BITMAP
0000
0000
0000
0000
0000
0000
0000
2f80
3040
2020
0040
0780
0040
0020
3040
0f80
0000
0000
0000
0000
ENDCHAR
STARTCHAR cyr-i
ENCODING 232
SWIDTH 600 0
DWIDTH 12 0
BBX 12 20 0 -4
BITMAP
0000
0000
0000
0000
0000
0000
0000
38e0
1040
10c0
1140
1240
1440
1840
1040
38e0
0000
0000
0000
0000
ENDCHAR
STARTCHAR cyr-i-short
ENCODING 233
SWIDTH 600 0
DWIDTH 12 0
BBX 12 20 0 -4
BITMAP
0000
0000
0000
0000
0880
0700
0000
38e0
1040
10c0
1140
1240
1440
1840
1040
38e0
0000
0000
0000
0000
ENDCHAR
STARTCHAR cyr-ka
ENCODING 234
SWIDTH 600 0
DWIDTH 12 0
BBX 12 20 0 -4
BITMAP
0000
0000
0000
0000
0000
0000
0000
38e0
1080
1100
1200
1600
1900
1080
1040
3830
0000
0000
0000
0000
ENDCHAR
STARTCHAR cyr-el
ENCODING 235
SWIDTH 600 0
DWIDTH 12 0
BBX 12 20 0 -4
BITMAP
0000
0000
0000
0000
0000
0000
0000
1fe0
0840
0840
0840
0840
0840
0840
4840
30e0
0000
0000
0000
0000
ENDCHAR
STARTCHAR cyr-em
ENCODING 236
SWIDTH 600 0
DWIDTH 12 0
BBX 12 20 0 -4
BITMAP
0000
0000
0000
0000
0000
0000
0000
6030
3060
28a0
2520
2220
2220
2020
2020
7070
0000
0000
0000
0000
ENDCHAR
STARTCHAR cyr-en
ENCODING 237
SWIDTH 600 0
DWIDTH 12 0
BBX 12 20 0 -4
BITMAP
0000
0000
0000
0000
0000
0000
0000
38e0
1040
1040
1040
1fc0
1040
1040
1040
38e0
0000
0000
0000
0000
ENDCHAR
STARTCHAR cyr-o
ENCODING 238
SWIDTH 600 0
DWIDTH 12 0
BBX 12 20 0 -4
BITMAP
0000
0000
0000
0000
0000
0000
0000
0f80
1040
2020
2020
2020
2020
2020
1040
0f80
0000
0000
0000
0000
ENDCHAR
STARTCHAR cyr-pe
ENCODING 239
SWIDTH 600 0
DWIDTH 12 0
BBX 12 20 0 -4
BITMAP
0000
0000
0000
0000
0000
0000
0000
3fe0
1040
1040
1040
1040
1040
1040
1040
38e0
0000
0000
0000
0000
ENDCHAR
STARTCHAR cyr-er
ENCODING 240
SWIDTH 600 0
DWIDTH 12 0
BBX 12 20 0 -4
BITMAP
0000
0000
0000
0000
0000
0000
0000
3780
1840
1020
1020
1020
1020
1020
1840
1780
1000
1000
1000
3c00
ENDCHAR
STARTCHAR cyr-es
ENCODING 241
SWIDTH 600 0
DWIDTH 12 0
BBX 12 20 0 -4
BITMAP
0000
0000
0000
0000
0000
0000
0000
07a0
0860
1020
1000
1000
1000
1000
0820
07c0
0000
0000
0000
0000
ENDCHAR
STARTCHAR cyr-te
ENCODING 242
SWIDTH 600 0
DWIDTH 12 0
BBX 12 20 0 -4
BITMAP
0000
0000
0000
0000
0000
0000
0000
3fe0
2220
0200
0200
0200
0200
0200
0200
0f80
0000
0000
0000
0000
ENDCHAR
STARTCHAR cyr-u
ENCODING 243
SWIDTH 600 0
DWIDTH 12 0
BBX 12 20 0 -4
BITMAP
0000
0000
0000
0000
0000
0000
0000
7070
2020
1020
1040
0840
0880
0480
0500
0300
0200
0200
2400
1800
ENDCHAR
STARTCHAR cyr-ef
ENCODING 244
SWIDTH 600 0
DWIDTH 12 0
BBX 12 20 0 -4
BITMAP
0000
0000
0000
0000
0000
0700
0200
0f80
1240
2220
2220
2220
2220
2220
1240
0f80
0200
0200
0200
0700
ENDCHAR
STARTCHAR cyr-kha
ENCODING 245
SWIDTH 600 0
DWIDTH 12 0
BBX 12 20 0 -4
BITMAP
0000
0000
0000
0000
0000
0000
0000
38e0
1040
0880
0500
0200
0500
0880
1040
38e0
0000
0000
0000
0000
ENDCHAR
STARTCHAR cyr-tse
ENCODING 246
SWIDTH 600 0
DWIDTH 12 0
BBX 12 20 0 -4
BITMAP
0000
0000
0000
0000
0000
0000
0000
38e0
1040
1040
1040
1040
1040
1040
1040
3ff0
0010
0010
0000
0000
ENDCHAR
STARTCHAR cyr-che
ENCODING 247
SWIDTH 600 0
DWIDTH 12 0
BBX 12 20 0 -4
BITMAP
0000
0000
0000
0000
0000
0000
0000
38e0
1040
1040
1040
10c0
0f40
0040
0040
00e0
0000
0000
0000
0000
ENDCHAR
STARTCHAR cyr-sha
ENCODING 248
SWIDTH 600 0
DWIDTH 12 0
BBX 12 20 0 -4
BITMAP
0000
0000
0000
0000
0000
0000
0000
7770
2220
2220
2220
2220
2220
2220
2220
7ff0
0000
0000
0000
0000
ENDCHAR
STARTCHAR cyr-shcha
ENCODING 249
SWIDTH 600 0
DWIDTH 12 0
BBX 12 20 0 -4
BITMAP
0000
0000
0000
0000
0000
0000
0000
7770
2220
2220
2220
2220
2220
2220
2220
7ff0
0010
0010
0000
0000
ENDCHAR
STARTCHAR cyr-ier
ENCODING 250
SWIDTH 600 0
DWIDTH 12 0
BBX 12 20 0 -4
BITMAP
0000
0000
0000
0000
0000
0000
0000
7c00
4800
4800
0fc0
0820
0810
0810
0820
3fc0
0000
0000
0000
0000
ENDCHAR
STARTCHAR cyr-iery
ENCODING 251
SWIDTH 600 0
DWIDTH 12 0
BBX 12 20 0 -4
BITMAP
0000
0000
0000
0000
0000
0000
0000
7070
2020
2020
3e20
2120
20a0
20a0
2120
7e70
0000
0000
0000
0000
ENDCHAR
STARTCHAR cyr-ierik
ENCODING 252
SWIDTH 600 0
DWIDTH 12 0
BBX 12 20 0 -4
BITMAP
0000
0000
0000
0000
0000
0000
0000
3800
1000
1000
1f80
1040
1020
1020
1040
3f80
0000
0000
0000
0000
ENDCHAR
STARTCHAR cyr-e-rev
ENCODING 253
SWIDTH 600 0
DWIDTH 12 0
BBX 12 20 0 -4
BITMAP
0000
0000
0000
0000
0000
0000
0000
0f80
1040
2020
0020
07e0
0020
2020
1040
0f80
0000
0000
0000
0000
ENDCHAR
STARTCHAR cyr-yu
ENCODING 254
SWIDTH 600 0
DWIDTH 12 0
BBX 12 20 0 -4
BITMAP
0000
0000
0000
0000
0000
0000
0000
71c0
2220
2410
2410
3c10
2410
2410
2220
71c0
0000
0000
0000
0000
ENDCHAR
STARTCHAR cyr-ya
ENCODING 255
SWIDTH 600 0
DWIDTH 12 0
BBX 12 20 0 -4
BITMAP
0000
0000
0000
0000
0000
0000
0000
1fe0
2040
2040
2040
1fc0
0440
0840
1040
61e0
0000
0000
0000
0000
ENDCHAR
ENDFONT
